<svg xmlns="http://www.w3.org/2000/svg" width="25" height="25" fill="none"><g clip-path="url(#a)"><path fill="#D80027" d="M.257 5.043h24v15.743h-24z"/><path fill="#FFDA44" d="m6.791 8.33-1.956.003-.005.003.003-.005-.598-1.937-.53 1.939-1.939-.002 1.61 1.138h.01l-.02.013-.654 1.928 1.564-1.21.003-.01.003.01 1.562 1.21-.655-1.928-.017-.013h.006zm3.33 3.113h-.4l-.123-.396-.108.396h-.395l.329.233h.002l-.004.003-.134.394.319-.247v-.002l.001.002.32.247-.135-.394-.004-.003h.002zm-2.212 2.052-.012-.416-.211.348-.379-.116.254.32h-.003l-.234.34.372-.143.001-.002v.002l.239.33-.022-.417v-.001l.378-.128zM9.466 9.4l.396-.019.002-.001v.003l.133.39.097-.405-.001-.004h.399l-.333-.232h-.002l.002-.001.109-.4-.301.265-.328-.23.15.385h-.003zM9.06 7.008l.003.001.378-.122-.381-.12h-.002l.002-.002-.007-.416-.215.347-.378-.122.25.322h.003l-.006.003-.236.334.373-.138.001-.003v.003l.236.335-.018-.418z"/></g><defs><clipPath id="a"><path fill="#fff" d="M.257.914h24v24h-24z"/></clipPath></defs></svg>