<svg xmlns="http://www.w3.org/2000/svg" width="33" height="32" fill="none"><g fill="#FDAC44" clip-path="url(#a)"><path d="M2.211 14.38c-.87.33-1.095 1.622-.345 2.209.352.293.75.523 1.18.681a1.4 1.4 0 0 0-.395 1.009c.043 1.467 2.046 1.8 3.376 1.86a1.15 1.15 0 0 0 .57 1.402c2.754 1.232 5.237.771 8.33-1.704a13 13 0 0 0 .07 2.685c.047.37-.03.745-.218 1.066-.54.925-1.836 2.669-4.443 3.967a1.06 1.06 0 0 0-.58 1.151c.135.82.943.99 1.66.892-.17.791.632 1.565 1.425 1.332a3.6 3.6 0 0 0 1.068-.468.97.97 0 0 0 1.26.482c1.385-.602 3.071-2.261 3.307-6.737 3.041-1.628 6.683-4.722 4.476-9.825-.483-1.045-.124-2.402.846-3.021-.25 1.174.317 2.87.441 2.998.2.382.78.082.586-.3-.069-.136-1.601-3.242 1.562-5.607a2.54 2.54 0 0 0 1.768.756 3.03 3.03 0 0 0 1.502-.437.33.33 0 0 0 .16-.22c.066-.497-1.157-1.24-1.946-1.243q.56-.522 1.008-1.144c.937.525 2.098.32 2.71-.757a.33.33 0 0 0-.087-.439c-.059-.08-1.046-.602-1.81-.305q.063-.173.115-.345c1.03-.578 1.677-1.863.806-3.187a.33.33 0 0 0-.425-.122c-.86.42-1.75 1.664-1.01 3.114a5.6 5.6 0 0 1-.812 1.63 2.38 2.38 0 0 0-1.1-2 .33.33 0 0 0-.46.127c-.778 1.437-.117 2.518.512 3.043-.397.374-.89.688-1.337 1.01.16-1.5-1.025-2.353-1.04-2.364a.33.33 0 0 0-.467.093c-.97 1.528-.304 2.77.35 3.381-.297.37-.54.78-.721 1.219a4 4 0 0 1-.786-.989 1.92 1.92 0 0 0-2.004-.936c-1.083.188-1.607 1.119-1.837 2.306-.284 1.1-.955 2.054-1.815 2.814-1.833-2.73-7.04.246-11.364-2.187.012-.974.563-1.031.623-1.034a.332.332 0 0 0 .226-.565c-.612-.597-.918-1.324-.744-1.766.21-.532.864-.322.936-.297a.332.332 0 0 0 .414-.44c-.304-.735-.59-1.822.193-1.945a.37.37 0 0 1 .394.273c1.422 4.613 5.227 5.038 8.022 5.902a1.82 1.82 0 0 1 1.08.929c.203.378.78.083.583-.306a2.48 2.48 0 0 0-1.455-1.248c-2.74-.85-6.306-1.214-7.596-5.454-.48-1.431-2.832-.811-2.026 1.57-1.483.044-1.573 1.751-.61 2.868-.385.241-.593.628-.669 1.127a7.3 7.3 0 0 1-2.046-2.167 1.166 1.166 0 0 0-1.436-.48c-1.183.461-.709 1.846-.223 2.68a1.24 1.24 0 0 0-.787.415c-.833.949.256 2.41 1.035 3.048m28.613-9.036c-.367.483-1.036.534-1.497.305.56-.554 1.15-.448 1.497-.305m-3.84 2.768a1.91 1.91 0 0 1 1.945.279c-.938.362-1.598.01-1.946-.279m2.645-5.543c.113-.316.316-.591.584-.793.366.719.017 1.462-.534 1.836a1.6 1.6 0 0 1-.05-1.044m-2.41 1.996c.289.301.65.879.408 1.749-.318-.31-.707-.893-.407-1.75m-2.38 1.802c.312.355.728 1.068.338 2.094-.341-.366-.794-1.092-.338-2.095m-23.168 5.4c.24-.321.737-.142.946-.138a.33.33 0 0 0 .271-.54A3.55 3.55 0 0 1 2.1 9.418c-.09-.578.645-.836.964-.35 2.784 4.463 7.498 3.987 11.88 3.794 2.5.082 2.525 1.922 2.525 2.005-.002.43.648.442.659.008a2.6 2.6 0 0 0-.154-.792c1.105-.983 1.947-2.213 2.24-3.646.2-1.435 1.754-2.035 2.534-.83.231.406.521.776.861 1.098-1.354.734-1.907 2.55-1.26 3.945a7.1 7.1 0 0 1 .55 3.638c-.31 3.129-4.843 5.396-4.89 5.419a.33.33 0 0 0-.183.281c-.182 4.28-1.688 5.817-2.92 6.353a.303.303 0 0 1-.405-.385c.126-.308-.28-.587-.524-.364a3.2 3.2 0 0 1-1.298.7.495.495 0 0 1-.474-.832q.097-.098.097-.1c.225-.233-.028-.637-.335-.539-.48.114-1.457.356-1.562-.226a.41.41 0 0 1 .225-.45c2.76-1.374 4.14-3.236 4.718-4.223.26-.448.367-.97.303-1.483a12.4 12.4 0 0 1 .005-3.25c.419-.395.847-.836 1.282-1.331a.33.33 0 0 0-.027-.468.33.33 0 0 0-.365-.047.3.3 0 0 0-.102.08c-4.414 5.015-7.88 4.364-9.553 3.53a.48.48 0 0 1-.268-.423.49.49 0 0 1 .25-.442.33.33 0 0 0-.177-.617c-1.23.065-2.24-.124-3.004-.563-.484-.257-.513-1.01-.035-1.289.317-.23.44-.262.402-.56a.33.33 0 0 0-.237-.233c-.628-.16-1.142-.409-1.528-.737a.653.653 0 0 1 .382-1.149q.24-.015.475-.064a.331.331 0 0 0 .08-.613c-.84-.442-1.404-1.097-1.676-1.946a.56.56 0 0 1 .116-.549"/><path d="M21.764 10.658c.454-.008.454-.683 0-.69-.454.007-.453.682 0 .69"/></g><defs><clipPath id="a"><path fill="#fff" d="M.257 0h32v32h-32z"/></clipPath></defs></svg>