<svg xmlns="http://www.w3.org/2000/svg" width="33" height="32" fill="none"><g fill="#FDAC44" clip-path="url(#a)"><path d="M21.257 21a2 2 0 0 0-2-2h-6.435l.435-3.44a.2.2 0 0 0 0-.06c0-2.77-1.96-3.5-3-3.5a.5.5 0 0 0-.5.365l-2 6.945a3.83 3.83 0 0 1-1.5 1.585V20.5a.5.5 0 0 0-.5-.5h-5a.5.5 0 0 0-.5.5v11a.5.5 0 0 0 .5.5h5a.5.5 0 0 0 .5-.5v-.335L9.122 32q.068.012.135 0h8.5a2 2 0 0 0 1.5-3.29 1.998 1.998 0 0 0 .5-3 1.998 1.998 0 0 0 .5-3 2 2 0 0 0 1-1.71m-16 10h-4V21h4zm12.5 0h-8.43l-3.07-.875V21.94c1.5-.345 2.405-2.13 2.445-2.215a1 1 0 0 0 .035-.09l1.885-6.59c.585.13 1.625.615 1.635 2.425l-.5 3.97a.5.5 0 0 0 .292.517.5.5 0 0 0 .208.043h7a1 1 0 0 1 0 2h-2.5a.5.5 0 1 0 0 1h2a1 1 0 0 1 0 2h-2.5a.5.5 0 1 0 0 1h2a1 1 0 0 1 0 2h-2.5a.5.5 0 1 0 0 1h2a1 1 0 0 1 0 2"/><path d="M32.258 6.845a.5.5 0 0 0-.4-.34l-6.256-.96-2.39-5.25a.5.5 0 0 0-.91 0l-2.39 5.25-6.23.955a.5.5 0 0 0-.28.85l4.32 4.315-.965 5.755a.5.5 0 0 0 .735.5l5.265-2.85 5.26 2.87a.5.5 0 0 0 .53-.035.5.5 0 0 0 .206-.5l-.96-5.75 4.32-4.315a.5.5 0 0 0 .145-.495m-5.33 4.3a.5.5 0 0 0-.14.435l.834 5-4.6-2.5a.5.5 0 0 0-.505-.02l-4.6 2.5.835-5a.5.5 0 0 0-.14-.435l-3.804-3.8 5.5-.85a.5.5 0 0 0 .38-.29l2.045-4.5 2.044 4.5a.5.5 0 0 0 .38.29l5.5.85zM6.757 7.5h.5V8a.5.5 0 1 0 1 0v-.5h.5a.5.5 0 0 0 0-1h-.5V6a.5.5 0 1 0-1 0v.5h-.5a.5.5 0 0 0 0 1m20.5 17.5h-.5v-.5a.5.5 0 0 0-1 0v.5h-.5a.5.5 0 0 0 0 1h.5v.5a.5.5 0 0 0 1 0V26h.5a.5.5 0 0 0 0-1"/></g><defs><clipPath id="a"><path fill="#fff" d="M.257 0h32v32h-32z"/></clipPath></defs></svg>