<svg xmlns="http://www.w3.org/2000/svg" width="19" height="18" fill="none"><path fill="url(#a)" d="M18.257 9a9 9 0 1 0-18 0 9 9 0 0 0 18 0"/><path fill="#fff" d="M16.03 3.08c-1.311 2.408-3.167 4.892-5.486 7.211s-4.803 4.17-7.208 5.483a9 9 0 0 1-.44-.41A9 9 0 1 1 15.622 2.636q.213.213.41.443" opacity=".1"/><path fill="#fff" d="M11.389 4.263H7.126A2.605 2.605 0 0 0 4.52 6.868v4.264a2.605 2.605 0 0 0 2.605 2.605h4.263a2.605 2.605 0 0 0 2.605-2.605V6.868a2.605 2.605 0 0 0-2.605-2.605m1.776 6.494a2.15 2.15 0 0 1-2.15 2.15H7.5a2.15 2.15 0 0 1-2.15-2.15V7.243a2.15 2.15 0 0 1 2.15-2.15h3.515a2.15 2.15 0 0 1 2.15 2.15z"/><path fill="#fff" d="m10.985 7.29-.022-.022-.02-.02a2.4 2.4 0 0 0-1.686-.696A2.43 2.43 0 0 0 6.844 9c0 .648.255 1.27.71 1.73a2.4 2.4 0 0 0 1.708.71 2.455 2.455 0 0 0 1.723-4.15m-1.728 3.316A1.606 1.606 0 1 1 10.841 9a1.59 1.59 0 0 1-1.584 1.606m3.13-4.166a.577.577 0 0 1-.794.538.57.57 0 0 1-.342-.422.584.584 0 0 1 .563-.697.57.57 0 0 1 .366.133l.012.012q.028.023.052.052l.013.014c.085.105.13.235.13.37"/><defs><linearGradient id="a" x1="2.893" x2="15.621" y1="2.636" y2="15.364" gradientUnits="userSpaceOnUse"><stop stop-color="#FAE100"/><stop offset=".15" stop-color="#FCB720"/><stop offset=".3" stop-color="#FF7950"/><stop offset=".5" stop-color="#FF1C74"/><stop offset="1" stop-color="#6C1CD1"/></linearGradient></defs></svg>