<svg xmlns="http://www.w3.org/2000/svg" width="33" height="32" fill="none"><g fill="#FDAC44" clip-path="url(#a)"><path d="M23.931 13.085a.9.9 0 0 1-.084-.451l.45-5.447a2 2 0 0 0-.622-1.63 2 2 0 0 0-1.661-.534 3.8 3.8 0 0 0-1.334.447 2.397 2.397 0 0 0-3.475-.429L13.54 8.11v-.686q0-.077.044-.143l.76-1.112a.468.468 0 1 0-.773-.528l-.76 1.112a1.2 1.2 0 0 0-.207.671v1.47l-2.917 2.441V6.926c0-.505.15-.992.435-1.409L12.799 1.6c.22-.321.552-.538.935-.61s.77.01 1.092.229c.322.22.539.552.61.935.073.382-.008.77-.228 1.092l-.491.719a.468.468 0 0 0 .772.528l.492-.719a2.38 2.38 0 0 0 .376-1.793A2.38 2.38 0 0 0 15.355.445 2.38 2.38 0 0 0 13.56.069a2.38 2.38 0 0 0-1.535 1.002L9.35 4.99a3.4 3.4 0 0 0-.598 1.937v5.192l-1.404 1.175A4.08 4.08 0 0 0 5.9 16.736l.298 3.789a.468.468 0 1 0 .933-.074l-.298-3.788a3.14 3.14 0 0 1 1.115-2.652l9.859-8.251a1.46 1.46 0 0 1 2.054.18 1.46 1.46 0 0 1-.18 2.055l-5.133 4.301c-.319.077-.624.23-.888.46l-2.51 2.184a.468.468 0 0 0 .615.706l2.508-2.183a1.15 1.15 0 0 1 1.514-.009l3.794 3.227c.296.252.477.605.508.993a1.45 1.45 0 0 1-1.041 1.516l-2.655-2.258a2.084 2.084 0 0 0-2.734.016L11.15 19.13a.468.468 0 1 0 .615.706l2.508-2.183a1.15 1.15 0 0 1 1.514-.009l3.794 3.227c.296.252.477.605.508.994.032.388-.09.765-.342 1.062a1.45 1.45 0 0 1-.994.509 1.45 1.45 0 0 1-1.062-.343l-2.349-1.998a.47.47 0 0 0-.634.026l-.697.697a.468.468 0 0 0 .662.662l.392-.392 2.02 1.718a2.38 2.38 0 0 0 1.743.563 2.38 2.38 0 0 0 1.632-.836 2.38 2.38 0 0 0 .563-1.744 2.38 2.38 0 0 0-.836-1.631l-.349-.297a2.395 2.395 0 0 0 .35-3.894l-1.683-1.431 1.017-5.189.759-.635a2.4 2.4 0 0 0 .793-2.387 2.8 2.8 0 0 1 1.066-.376 1.078 1.078 0 0 1 1.224 1.16l-.45 5.446a1.8 1.8 0 0 0 .173.937l.834 1.723a8.13 8.13 0 0 1 .097 6.881l-.536 1.194a.468.468 0 1 0 .854.383l.536-1.193a9.06 9.06 0 0 0-.108-7.672zm-6.243.757-1.294-1.101a2.1 2.1 0 0 0-.527-.33l2.514-2.106zm5.592 11.043a.47.47 0 0 0-.618.235l-1.2 2.67a.5.5 0 0 0-.04.192v3.55a.468.468 0 1 0 .936 0v-3.45l1.158-2.578a.47.47 0 0 0-.236-.62M20.563 2.913c.259 0 .468-.21.468-.468V.468a.468.468 0 1 0-.936 0v1.977c0 .258.21.468.468.468m1.998.466a.465.465 0 0 0 .637-.182l.962-1.727a.468.468 0 1 0-.818-.455l-.962 1.727a.47.47 0 0 0 .181.637m3.996-.155a.47.47 0 0 0-.644-.152l-1.681 1.04a.468.468 0 0 0 .493.797l1.68-1.041a.47.47 0 0 0 .152-.644M8.652 25.625a6.5 6.5 0 0 1-1.355-3.2.468.468 0 0 0-.929.12 7.4 7.4 0 0 0 1.552 3.663l1.93 2.427v2.867a.468.468 0 1 0 .937 0v-3.03a.47.47 0 0 0-.102-.292z"/></g><defs><clipPath id="a"><path fill="#fff" d="M.257 0h32v32h-32z"/></clipPath></defs></svg>