<svg xmlns="http://www.w3.org/2000/svg" width="33" height="32" fill="none"><g clip-path="url(#a)"><path fill="#FDAC44" d="M32.12 9.657c-1.126-1.848-4.228-1.145-6.002-.843C18.38-1.079 2.54 5.42 4.376 17.941c-1.583 1.02-5.405 3.71-3.681 5.667.254.282.573.497.93.624 2.441.906 5.206.257 7.687-.181 6.365-1.453 12.499-4.07 17.897-7.748.178 9.16-10.161 14.53-17.75 9.627 8.238 6.465 20.075-.39 19.16-10.674 1.435-1.232 4.296-3.446 3.502-5.599M5.997 23.368c-6.918 1.083-5.721-1.805-1.61-5.367a11.4 11.4 0 0 0 2.348 5.234q-.367.07-.738.13zm17.357-6.35c-5.227 2.743-10.79 5.03-16.584 6.212-3.143-4.703-2.252-11.55 2.157-15.142 6.486-5.591 16.881-1.776 18.151 6.707a46 46 0 0 1-3.724 2.223m8.032-6.498c-.474 1.434-1.809 2.39-2.97 3.326a12.2 12.2 0 0 0-2.182-4.88c1.222-.042 5.438-.386 5.152 1.554"/></g><defs><clipPath id="a"><path fill="#fff" d="M.257 0h32v32h-32z"/></clipPath></defs></svg>