<svg width="25" height="25" viewBox="0 0 25 25" fill="none" xmlns="http://www.w3.org/2000/svg">
<path d="M8.79161 5.88403C8.58381 5.87946 8.37974 5.9397 8.20779 6.05647C8.03583 6.17323 7.90453 6.34076 7.83214 6.5356C7.75974 6.73044 7.74986 6.94296 7.80385 7.14368C7.85784 7.3444 7.97303 7.52323 8.13341 7.65545L14.2525 12.8976L8.13341 18.138C8.02247 18.2195 7.92956 18.323 7.8605 18.4421C7.79144 18.5612 7.74772 18.6933 7.73207 18.8301C7.71642 18.9669 7.72918 19.1054 7.76955 19.2371C7.80993 19.3687 7.87704 19.4906 7.9667 19.5951C8.05636 19.6996 8.16662 19.7843 8.29059 19.8442C8.41455 19.9041 8.54955 19.9378 8.68713 19.9431C8.8247 19.9484 8.96189 19.9253 9.09011 19.8751C9.21832 19.825 9.33479 19.7489 9.43223 19.6516L16.4381 13.6574C16.5481 13.5635 16.6365 13.447 16.697 13.3156C16.7576 13.1843 16.789 13.0413 16.789 12.8967C16.789 12.7521 16.7576 12.6091 16.697 12.4778C16.6365 12.3465 16.5481 12.2298 16.4381 12.1359L9.43223 6.13594C9.25525 5.97874 9.02826 5.88937 8.79161 5.8838V5.88403Z" fill="#323232"/>
</svg>
