<svg xmlns="http://www.w3.org/2000/svg" width="25" height="25" fill="none"><path fill="#0053B5" d="M1.007 19.008V6.82l1.407-2.343h7.03l2.813.468 2.813-.468h7.03l1.406 2.343v12.188L22.1 21.352h-7.03l-2.813-.47-2.812.47H2.414z"/><path fill="#fff" d="M1.007 10.102h22.5v5.625h-22.5z"/><path fill="#D80027" d="M1.007 11.04h22.5v3.75h-22.5z"/><path fill="#fff" d="M9.445 4.477h5.625v16.875H9.445z"/><path fill="#D80027" d="M10.382 4.477h3.75v16.875h-3.75z"/><path fill="#fff" d="M23.507 4.477h-1.406L15.07 9.164v1.406l3.75-.468 4.687-3.282z"/><path fill="#D80027" d="m23.507 4.477-8.437 5.625h2.344l6.093-4.22z"/><path fill="#fff" d="M1.007 4.477h1.407l7.03 4.687v1.406l-3.75-.468L1.008 6.82z"/><path fill="#D80027" d="m1.007 4.477 8.438 5.625H7.1l-6.094-4.22z"/><path fill="#fff" d="M1.007 21.352h1.407l7.03-4.688v-1.406l-3.75.469-4.687 3.28z"/><path fill="#D80027" d="m1.007 21.352 8.438-5.625H7.1l-6.094 4.218z"/><path fill="#fff" d="M23.507 21.352h-1.406l-7.031-4.688v-1.406l3.75.469 4.687 3.28z"/><path fill="#D80027" d="m23.507 21.352-8.437-5.625h2.344l6.093 4.218z"/></svg>