<svg width="25" height="25" viewBox="0 0 25 25" fill="none" xmlns="http://www.w3.org/2000/svg">
<path d="M1.00732 19.0078V6.82031L2.41357 4.47656H9.44482L12.2573 4.94531L15.0698 4.47656H22.1011L23.5073 6.82031V19.0078L22.1011 21.3516H15.0698L12.2573 20.8828L9.44482 21.3516H2.41357L1.00732 19.0078Z" fill="#0053B5"/>
<path d="M1.00732 10.1016H23.5073V15.7266H1.00732V10.1016Z" fill="white"/>
<path d="M1.00732 11.0391H23.5073V14.7891H1.00732V11.0391Z" fill="#D80027"/>
<path d="M9.44482 4.47656H15.0698V21.3516H9.44482V4.47656Z" fill="white"/>
<path d="M10.3823 4.47656H14.1323V21.3516H10.3823V4.47656Z" fill="#D80027"/>
<path d="M23.5073 4.47656H22.1011L15.0698 9.16406V10.5703L18.8198 10.1016L23.5073 6.82031V4.47656Z" fill="white"/>
<path d="M23.5073 4.47656L15.0698 10.1016H17.4136L23.5073 5.88281V4.47656Z" fill="#D80027"/>
<path d="M1.00732 4.47656H2.41357L9.44482 9.16406V10.5703L5.69482 10.1016L1.00732 6.82031V4.47656Z" fill="white"/>
<path d="M1.00732 4.47656L9.44482 10.1016H7.10107L1.00732 5.88281V4.47656Z" fill="#D80027"/>
<path d="M1.00732 21.3516H2.41357L9.44482 16.6641V15.2578L5.69482 15.7266L1.00732 19.0078V21.3516Z" fill="white"/>
<path d="M1.00732 21.3516L9.44482 15.7266H7.10107L1.00732 19.9453V21.3516Z" fill="#D80027"/>
<path d="M23.5073 21.3516H22.1011L15.0698 16.6641V15.2578L18.8198 15.7266L23.5073 19.0078V21.3516Z" fill="white"/>
<path d="M23.5073 21.3516L15.0698 15.7266H17.4136L23.5073 19.9453V21.3516Z" fill="#D80027"/>
</svg>
