<svg width="25" height="25" viewBox="0 0 25 25" fill="none" xmlns="http://www.w3.org/2000/svg">
<g clip-path="url(#clip0_2_8454)">
<path d="M0.257324 5.04297H24.2573V20.7855H0.257324V5.04297Z" fill="#D80027"/>
<path d="M6.79111 8.3308L4.83511 8.33305L4.82986 8.33605L4.83286 8.3308L4.23511 6.39355L3.70411 8.33305L1.76611 8.3308L3.37561 9.46855H3.38536L3.36661 9.48205L2.71186 11.4103L4.27561 10.1998L4.27861 10.1908L4.28161 10.1998L5.84386 11.4103L5.18911 9.48205L5.17186 9.46855H5.17786L6.79111 8.3308Z" fill="#FFDA44"/>
<path d="M10.1212 11.4426H9.72071L9.59846 11.0474L9.48971 11.4426H9.09521L9.42371 11.6759H9.42596L9.42221 11.6789L9.28796 12.0726L9.60671 11.8259L9.60746 11.8236L9.60821 11.8259L9.92771 12.0726L9.79271 11.6789L9.78896 11.6759H9.79121L10.1212 11.4426Z" fill="#FFDA44"/>
<path d="M7.90863 13.4946L7.89738 13.0791L7.68588 13.4271L7.30713 13.3109L7.56063 13.6304L7.56138 13.6311L7.55763 13.6319L7.32363 13.9709L7.69563 13.8284L7.69713 13.8261V13.8284L7.93563 14.1584L7.91388 13.7414L7.91313 13.7399L8.29188 13.6116L7.90863 13.4946Z" fill="#FFDA44"/>
<path d="M9.46582 9.40071L9.86182 9.38121L9.86407 9.37971L9.86332 9.38271L9.99682 9.77346L10.0943 9.36771L10.0928 9.36396L10.0943 9.36471L10.4918 9.36396L10.1588 9.13221H10.1573L10.1588 9.13071L10.2676 8.73096L9.96682 8.99646L9.63907 8.76621L9.78832 9.15096H9.78607L9.46582 9.40071Z" fill="#FFDA44"/>
<path d="M9.0597 7.00837L9.0627 7.00912L9.44145 6.88687L9.0597 6.76612L9.0582 6.76687L9.0597 6.76462L9.05295 6.34912L8.83845 6.69562L8.46045 6.57412L8.7102 6.89587L8.7132 6.89662L8.7072 6.89887L8.47095 7.23337L8.8437 7.09462L8.8452 7.09237V7.09462L9.0807 7.42987L9.0627 7.01212L9.0597 7.00837Z" fill="#FFDA44"/>
</g>
<defs>
<clipPath id="clip0_2_8454">
<rect width="24" height="24" fill="white" transform="translate(0.257324 0.914062)"/>
</clipPath>
</defs>
</svg>
