<svg width="25" height="25" viewBox="0 0 25 25" fill="none" xmlns="http://www.w3.org/2000/svg">
<path d="M19.2874 9.44835C19.2919 9.24054 19.2317 9.03648 19.1149 8.86452C18.9982 8.69257 18.8306 8.56127 18.6358 8.48887C18.4409 8.41648 18.2284 8.40659 18.0277 8.46059C17.827 8.51458 17.6482 8.62977 17.5159 8.79014L12.2738 14.9093L7.03342 8.79014C6.95188 8.6792 6.84837 8.5863 6.72926 8.51724C6.61016 8.44818 6.47804 8.40445 6.34125 8.38881C6.20447 8.37316 6.06595 8.38592 5.93433 8.42629C5.8027 8.46667 5.68079 8.53378 5.5763 8.62344C5.47182 8.71309 5.38706 8.82336 5.32716 8.94732C5.26727 9.07129 5.23363 9.20629 5.22832 9.34387C5.22301 9.48144 5.24609 9.61863 5.29625 9.74684C5.34642 9.87506 5.42252 9.99153 5.51979 10.089L11.514 17.0948C11.6079 17.2048 11.7244 17.2932 11.8558 17.3538C11.9871 17.4144 12.13 17.4457 12.2747 17.4457C12.4193 17.4457 12.5623 17.4144 12.6936 17.3538C12.8249 17.2932 12.9416 17.2048 13.0355 17.0948L19.0354 10.089C19.1926 9.91199 19.282 9.68499 19.2876 9.44835L19.2874 9.44835Z" fill="#323232"/>
</svg>
