<svg width="25" height="25" viewBox="0 0 25 25" fill="none" xmlns="http://www.w3.org/2000/svg">
<g clip-path="url(#clip0_1921_2998)">
<path d="M12.2573 1.91406V23.9141" stroke="#323232" stroke-width="2" stroke-linecap="round" stroke-linejoin="round"/>
<path d="M17.2573 5.91406H9.75732C8.82907 5.91406 7.93883 6.28281 7.28245 6.93919C6.62607 7.59557 6.25732 8.4858 6.25732 9.41406C6.25732 10.3423 6.62607 11.2326 7.28245 11.8889C7.93883 12.5453 8.82907 12.9141 9.75732 12.9141H14.7573C15.6856 12.9141 16.5758 13.2828 17.2322 13.9392C17.8886 14.5956 18.2573 15.4858 18.2573 16.4141C18.2573 17.3423 17.8886 18.2326 17.2322 18.8889C16.5758 19.5453 15.6856 19.9141 14.7573 19.9141H6.25732" stroke="#323232" stroke-width="2" stroke-linecap="round" stroke-linejoin="round"/>
</g>
<defs>
<clipPath id="clip0_1921_2998">
<rect width="24" height="24" fill="white" transform="translate(0.257324 0.914062)"/>
</clipPath>
</defs>
</svg>
