<svg width="25" height="25" viewBox="0 0 25 25" fill="none" xmlns="http://www.w3.org/2000/svg">
<path d="M12.2573 16.9141C14.4633 16.9141 16.2573 15.1191 16.2573 12.9141V6.91406C16.2573 4.70806 14.4633 2.91406 12.2573 2.91406C10.0513 2.91406 8.25732 4.70806 8.25732 6.91406V12.9141C8.25732 15.1191 10.0513 16.9141 12.2573 16.9141ZM19.2573 12.9141V10.9141C19.2573 10.6488 19.152 10.3945 18.9644 10.207C18.7769 10.0194 18.5225 9.91406 18.2573 9.91406C17.9921 9.91406 17.7378 10.0194 17.5502 10.207C17.3627 10.3945 17.2573 10.6488 17.2573 10.9141V12.9141C17.2573 15.6711 15.0143 17.9141 12.2573 17.9141C9.50032 17.9141 7.25732 15.6711 7.25732 12.9141V10.9141C7.25732 10.6488 7.15197 10.3945 6.96443 10.207C6.77689 10.0194 6.52254 9.91406 6.25732 9.91406C5.99211 9.91406 5.73775 10.0194 5.55022 10.207C5.36268 10.3945 5.25732 10.6488 5.25732 10.9141V12.9141C5.25732 16.4341 7.87032 19.3461 11.2573 19.8341V20.9141H8.25732C7.99211 20.9141 7.73775 21.0194 7.55022 21.207C7.36268 21.3945 7.25732 21.6488 7.25732 21.9141C7.25732 22.1793 7.36268 22.4336 7.55022 22.6212C7.73775 22.8087 7.99211 22.9141 8.25732 22.9141H16.2573C16.5225 22.9141 16.7769 22.8087 16.9644 22.6212C17.152 22.4336 17.2573 22.1793 17.2573 21.9141C17.2573 21.6488 17.152 21.3945 16.9644 21.207C16.7769 21.0194 16.5225 20.9141 16.2573 20.9141H13.2573V19.8341C16.6443 19.3461 19.2573 16.4341 19.2573 12.9141Z" fill="#FDAB44"/>
</svg>
