<svg width="25" height="25" viewBox="0 0 25 25" fill="none" xmlns="http://www.w3.org/2000/svg">
<g clip-path="url(#clip0_1921_3055)">
<path d="M17.2573 21.9141V19.9141C17.2573 18.8532 16.8359 17.8358 16.0858 17.0856C15.3356 16.3355 14.3182 15.9141 13.2573 15.9141H5.25732C4.19646 15.9141 3.17904 16.3355 2.4289 17.0856C1.67875 17.8358 1.25732 18.8532 1.25732 19.9141V21.9141" stroke="#323232" stroke-width="2" stroke-linecap="round" stroke-linejoin="round"/>
<path d="M9.25732 11.9141C11.4665 11.9141 13.2573 10.1232 13.2573 7.91406C13.2573 5.70492 11.4665 3.91406 9.25732 3.91406C7.04819 3.91406 5.25732 5.70492 5.25732 7.91406C5.25732 10.1232 7.04819 11.9141 9.25732 11.9141Z" stroke="#323232" stroke-width="2" stroke-linecap="round" stroke-linejoin="round"/>
<path d="M23.2573 21.9139V19.9139C23.2567 19.0277 22.9617 18.1667 22.4187 17.4663C21.8757 16.7658 21.1155 16.2655 20.2573 16.0439" stroke="#323232" stroke-width="2" stroke-linecap="round" stroke-linejoin="round"/>
<path d="M16.2573 4.04395C17.1177 4.26425 17.8804 4.76465 18.425 5.46626C18.9696 6.16787 19.2652 7.03078 19.2652 7.91895C19.2652 8.80712 18.9696 9.67003 18.425 10.3716C17.8804 11.0732 17.1177 11.5736 16.2573 11.7939" stroke="#323232" stroke-width="2" stroke-linecap="round" stroke-linejoin="round"/>
</g>
<defs>
<clipPath id="clip0_1921_3055">
<rect width="24" height="24" fill="white" transform="translate(0.257324 0.914062)"/>
</clipPath>
</defs>
</svg>
