<svg width="25" height="25" viewBox="0 0 25 25" fill="none" xmlns="http://www.w3.org/2000/svg">
<g clip-path="url(#clip0_1921_2657)">
<path d="M19.2728 4.42236H5.24182C2.48896 4.42236 0.257324 6.65399 0.257324 9.40686V16.4209C0.257324 19.1737 2.48896 21.4054 5.24182 21.4054H19.2728C22.0257 21.4054 24.2573 19.1737 24.2573 16.4209V9.40686C24.2573 6.65399 22.0257 4.42236 19.2728 4.42236ZM15.9019 13.2551L9.33909 16.3852C9.16422 16.4686 8.96222 16.3411 8.96222 16.1474V9.69163C8.96222 9.49515 9.16953 9.36781 9.34477 9.45663L15.9075 12.7823C16.1027 12.8812 16.0993 13.161 15.9019 13.2551Z" fill="#F61C0D"/>
</g>
<defs>
<clipPath id="clip0_1921_2657">
<rect width="24" height="24" fill="white" transform="translate(0.257324 0.914062)"/>
</clipPath>
</defs>
</svg>
