<svg width="25" height="25" viewBox="0 0 25 25" fill="none" xmlns="http://www.w3.org/2000/svg">
<path d="M18.2573 8.91406C18.2573 7.32276 17.6252 5.79664 16.5 4.67142C15.3747 3.5462 13.8486 2.91406 12.2573 2.91406C10.666 2.91406 9.1399 3.5462 8.01468 4.67142C6.88947 5.79664 6.25732 7.32276 6.25732 8.91406C6.25732 15.9141 3.25732 17.9141 3.25732 17.9141H21.2573C21.2573 17.9141 18.2573 15.9141 18.2573 8.91406Z" stroke="#323232" stroke-width="2" stroke-linecap="round" stroke-linejoin="round"/>
<path d="M13.9873 21.9141C13.8115 22.2171 13.5592 22.4687 13.2556 22.6436C12.952 22.8185 12.6077 22.9105 12.2573 22.9105C11.907 22.9105 11.5627 22.8185 11.2591 22.6436C10.9555 22.4687 10.7032 22.2171 10.5273 21.9141" stroke="#323232" stroke-width="2" stroke-linecap="round" stroke-linejoin="round"/>
</svg>
