<svg width="33" height="32" viewBox="0 0 33 32" fill="none" xmlns="http://www.w3.org/2000/svg">
<g clip-path="url(#clip0_2_8258)">
<path d="M2.21148 14.3803C1.34023 14.7103 1.11623 16.0016 1.86625 16.5888C2.21774 16.8817 2.6168 17.1121 3.04611 17.2702C2.91623 17.4034 2.81433 17.5612 2.74644 17.7344C2.67855 17.9076 2.64604 18.0926 2.65082 18.2786C2.69421 19.7461 4.69722 20.0787 6.02719 20.1387C5.93669 20.4018 5.94446 20.6887 6.04908 20.9465C6.1537 21.2043 6.34809 21.4155 6.59632 21.5411C9.35058 22.7735 11.8337 22.3124 14.9263 19.8366C14.8571 20.7317 14.8809 21.6315 14.9974 22.5217C15.0436 22.8917 14.9668 23.2665 14.7786 23.5884C14.2386 24.5126 12.9433 26.2566 10.3363 27.5546C10.1265 27.6561 9.95604 27.8239 9.8512 28.0321C9.74636 28.2402 9.71298 28.4771 9.75623 28.7061C9.89082 29.5265 10.6989 29.6962 11.4162 29.5979C11.2459 30.3894 12.0476 31.1629 12.8406 30.9303C13.2194 30.8328 13.58 30.6747 13.9085 30.4622C14.0145 30.691 14.2057 30.8693 14.4413 30.9593C14.6768 31.0492 14.9382 31.0436 15.1697 30.9436C16.5539 30.3419 18.2404 28.683 18.4755 24.207C21.517 22.5787 25.1589 19.4848 22.9515 14.3819C22.4686 13.3372 22.8279 11.9796 23.7977 11.3608C23.5485 12.5348 24.1151 14.2302 24.2392 14.3594C24.4398 14.7412 25.0185 14.4408 24.825 14.0582C24.756 13.9227 23.2238 10.817 26.3866 8.45159C26.8541 8.92613 27.4893 9.19794 28.1554 9.20839C28.6855 9.19664 29.2033 9.04596 29.657 8.7714C29.6979 8.74815 29.7333 8.71642 29.7609 8.67833C29.7885 8.64025 29.8077 8.59669 29.817 8.5506C29.8829 8.05432 28.6601 7.31022 27.8706 7.30825C28.2431 6.96051 28.5808 6.57737 28.8791 6.16425C29.8164 6.68924 30.9766 6.48321 31.5891 5.4066C31.6323 5.33593 31.6473 5.25157 31.6311 5.17032C31.615 5.08907 31.5688 5.0169 31.5017 4.9682C31.4433 4.88745 30.4555 4.36585 29.6912 4.66251C29.7341 4.548 29.7729 4.43302 29.8074 4.31757C30.8371 3.73997 31.4839 2.45526 30.6131 1.13121C30.57 1.06162 30.5026 1.01055 30.424 0.987932C30.3453 0.965314 30.2611 0.972774 30.1877 1.00886C29.3271 1.42881 28.4387 2.67333 29.1782 4.12321C28.9978 4.70696 28.7234 5.2574 28.3659 5.75286C28.3649 5.35407 28.2635 4.96195 28.0711 4.61262C27.8788 4.26328 27.6016 3.96794 27.2652 3.7538C27.227 3.7312 27.1846 3.71651 27.1406 3.71061C27.0965 3.70471 27.0518 3.70771 27.009 3.71944C26.9661 3.73117 26.9261 3.75138 26.8912 3.77888C26.8563 3.80639 26.8273 3.84062 26.8059 3.87954C26.0284 5.31747 26.6887 6.39804 27.3176 6.92293C26.9214 7.29658 26.4279 7.61074 25.9812 7.93253C26.1412 6.43267 24.9563 5.57959 24.9413 5.56895C24.9047 5.54372 24.8635 5.52609 24.8199 5.51712C24.7764 5.50814 24.7316 5.50801 24.688 5.51672C24.6445 5.52543 24.6031 5.54281 24.5664 5.56782C24.5297 5.59283 24.4984 5.62497 24.4743 5.66232C23.5045 7.19004 24.1701 8.43117 24.8237 9.0434C24.5271 9.41344 24.2843 9.82359 24.1026 10.2617C23.7899 9.97607 23.5247 9.64247 23.3171 9.27342C23.1205 8.92963 22.8224 8.65506 22.4637 8.48735C22.1049 8.31964 21.7031 8.26701 21.3132 8.33667C20.2298 8.52491 19.7063 9.45592 19.4762 10.6426C19.1922 11.7425 18.5214 12.697 17.6607 13.4567C15.8278 10.7266 10.6207 13.7028 6.29703 11.2705C6.30851 10.296 6.86032 10.2388 6.92009 10.2357C6.98478 10.2339 7.04754 10.2132 7.10063 10.1762C7.15371 10.1392 7.19479 10.0874 7.21881 10.0273C7.24283 9.96725 7.24873 9.90144 7.23579 9.83803C7.22284 9.77462 7.19162 9.71638 7.14597 9.67051C6.53421 9.07352 6.22823 8.34749 6.40244 7.90514C6.61138 7.37338 7.2655 7.58317 7.33797 7.6082C7.39823 7.62881 7.46315 7.63163 7.52497 7.61632C7.58679 7.60101 7.64289 7.56822 7.68657 7.52187C7.73025 7.47552 7.75965 7.41757 7.77127 7.35495C7.78289 7.29234 7.77623 7.2277 7.75209 7.16877C7.44799 6.43295 7.16282 5.34608 7.94541 5.22279C8.03261 5.2149 8.11981 5.23791 8.19176 5.2878C8.26371 5.3377 8.31583 5.4113 8.339 5.49573C9.76084 10.1089 13.5656 10.5342 16.3609 11.3978C16.5941 11.4722 16.8099 11.5928 16.9953 11.7524C17.1808 11.912 17.3322 12.1074 17.4405 12.3269C17.6439 12.7052 18.2207 12.4099 18.024 12.0215C17.8763 11.7273 17.6717 11.4654 17.4219 11.251C17.1721 11.0366 16.8822 10.8741 16.569 10.7727C13.8284 9.92368 10.2627 9.5586 8.97298 5.3186C8.49298 3.88801 6.1407 4.50787 6.94691 6.88811C5.46437 6.93253 5.37439 8.64048 6.33703 9.75709C5.95181 9.99804 5.74352 10.3851 5.66804 10.8841C4.84421 10.3104 4.1478 9.57274 3.62249 8.71728C3.47941 8.47926 3.25609 8.3001 2.99271 8.21202C2.72933 8.12395 2.44317 8.13274 2.18569 8.23681C1.00348 8.69799 1.47698 10.0834 1.96263 10.9162C1.65811 10.9526 1.37793 11.1007 1.17646 11.332C0.343052 12.2806 1.43237 13.7414 2.21148 14.3803ZM30.8238 5.34373C30.4575 5.82655 29.7885 5.87841 29.3273 5.64858C29.8877 5.09545 30.4779 5.20133 30.8238 5.34373ZM26.9838 8.1122C27.3028 7.97775 27.6524 7.93264 27.9951 7.98172C28.3378 8.03079 28.6607 8.1722 28.9291 8.39079C27.9911 8.75314 27.3305 8.40161 26.9834 8.1122H26.9838ZM29.6294 2.56867C29.7421 2.25314 29.945 1.97763 30.2129 1.77629C30.5788 2.49469 30.2302 3.23757 29.679 3.61159C29.5451 3.27945 29.5275 2.9118 29.629 2.56839L29.6294 2.56867ZM27.2197 4.56491C27.5079 4.86608 27.8691 5.44387 27.6269 6.31352C27.309 6.00491 26.9202 5.42138 27.2197 4.56491ZM24.8385 6.36669C25.151 6.72227 25.5665 7.43493 25.1767 8.46147C24.8355 8.09535 24.3827 7.36877 24.8388 6.36622L24.8385 6.36669ZM1.67115 11.7671C1.91133 11.4458 2.40809 11.6251 2.61731 11.6288C2.68088 11.6313 2.7438 11.6154 2.79858 11.583C2.85336 11.5507 2.89768 11.5033 2.92624 11.4464C2.95481 11.3896 2.96642 11.3257 2.95969 11.2625C2.95296 11.1992 2.92817 11.1393 2.88828 11.0897C2.48234 10.6116 2.21036 10.0344 2.10004 9.41695C2.01091 8.83945 2.7455 8.581 3.06428 9.06731C5.84781 13.5296 10.5617 13.0537 14.9446 12.861C17.4436 12.9435 17.4694 14.7834 17.4692 14.8665C17.4675 15.2952 18.1168 15.308 18.128 14.8743C18.1179 14.6037 18.0659 14.3363 17.9738 14.0817C19.0793 13.0993 19.9206 11.8689 20.2145 10.4362C20.4135 9.00077 21.9682 8.40124 22.7483 9.60566C22.9794 10.0122 23.2695 10.3823 23.6091 10.7038C22.255 11.4379 21.702 13.2544 22.3494 14.6493C22.848 15.7927 23.0376 17.0469 22.8992 18.2866C22.5892 21.4156 18.0556 23.6832 18.0099 23.7058C17.9568 23.7319 17.9117 23.7718 17.8794 23.8214C17.8471 23.8709 17.8287 23.9282 17.8262 23.9873C17.6443 28.2678 16.1383 29.8042 14.9069 30.3395C14.8523 30.3633 14.7918 30.3705 14.7331 30.3601C14.6744 30.3498 14.6201 30.3225 14.5768 30.2815C14.5336 30.2405 14.5033 30.1877 14.4898 30.1297C14.4764 30.0716 14.4803 30.0109 14.5011 29.955C14.6267 29.647 14.2211 29.3677 13.9774 29.5905C13.6053 29.9223 13.1607 30.1624 12.6791 30.2916C12.5733 30.3204 12.4608 30.3132 12.3595 30.2711C12.2581 30.2291 12.1736 30.1545 12.1193 30.0592C12.065 29.9638 12.0439 29.8531 12.0593 29.7445C12.0748 29.6358 12.1259 29.5354 12.2047 29.459C12.2689 29.3951 12.3019 29.3587 12.3019 29.3587C12.5273 29.1258 12.2737 28.7222 11.9674 28.8202C11.4867 28.9343 10.5099 29.1763 10.4055 28.5943C10.3877 28.505 10.4 28.4122 10.4407 28.3307C10.4814 28.2492 10.5481 28.1836 10.6302 28.1442C13.3902 26.7701 14.7704 24.9082 15.3476 23.9208C15.6089 23.4731 15.7155 22.9519 15.6508 22.4376C15.5093 21.359 15.511 20.2665 15.6558 19.1883C16.0749 18.793 16.5029 18.3517 16.9382 17.8568C16.9672 17.8244 16.9896 17.7865 17.004 17.7454C17.0184 17.7044 17.0245 17.6608 17.0219 17.6174C17.0194 17.5739 17.0082 17.5314 16.9892 17.4923C16.9701 17.4531 16.9434 17.4182 16.9107 17.3894C16.8781 17.3606 16.84 17.3386 16.7988 17.3247C16.7575 17.3107 16.7139 17.305 16.6705 17.308C16.6271 17.311 16.5847 17.3226 16.5457 17.342C16.5068 17.3615 16.4721 17.3885 16.4437 17.4215C12.0295 22.4366 8.56376 21.7858 6.89072 20.9514C6.8115 20.9126 6.74458 20.8526 6.69738 20.7781C6.65018 20.7035 6.62455 20.6174 6.62333 20.5291C6.62018 20.4396 6.64179 20.3509 6.68577 20.2729C6.72976 20.1949 6.79443 20.1305 6.87265 20.0868C6.93687 20.0501 6.98691 19.9929 7.01477 19.9243C7.04263 19.8558 7.04669 19.7799 7.0263 19.7088C7.00591 19.6377 6.96226 19.5754 6.90232 19.5321C6.84239 19.4887 6.76964 19.4667 6.69571 19.4696C5.46663 19.5354 4.45571 19.346 3.69204 18.9074C3.20818 18.6501 3.17891 17.8964 3.65703 17.618C3.97392 17.3871 4.09675 17.3564 4.05882 17.0586C4.04362 17.0021 4.01371 16.9508 3.97213 16.9098C3.93055 16.8687 3.87881 16.8395 3.82221 16.825C3.19359 16.6645 2.67952 16.4164 2.2943 16.0876C2.19574 16.0031 2.12459 15.8912 2.08992 15.7661C2.05525 15.6409 2.05863 15.5083 2.09962 15.3852C2.14062 15.262 2.21737 15.1538 2.3201 15.0744C2.42283 14.995 2.54687 14.948 2.67642 14.9394C2.836 14.929 2.99466 14.9074 3.15124 14.8748C3.21605 14.8588 3.27451 14.8236 3.31897 14.7738C3.36343 14.724 3.39181 14.6619 3.4004 14.5957C3.40899 14.5295 3.39738 14.4623 3.36709 14.4028C3.33681 14.3433 3.28926 14.2943 3.23068 14.2623C2.39068 13.82 1.82691 13.1653 1.55482 12.3158C1.52394 12.2222 1.51843 12.1221 1.53887 12.0257C1.55931 11.9293 1.60495 11.8401 1.67115 11.7671Z" fill="#FDAC44"/>
<path d="M21.764 10.6579C22.2176 10.6502 22.2175 9.9754 21.764 9.96777C21.3104 9.97549 21.3105 10.6502 21.764 10.6579Z" fill="#FDAC44"/>
</g>
<defs>
<clipPath id="clip0_2_8258">
<rect width="32" height="32" fill="white" transform="translate(0.257324)"/>
</clipPath>
</defs>
</svg>
