<svg width="33" height="32" viewBox="0 0 33 32" fill="none" xmlns="http://www.w3.org/2000/svg">
<g clip-path="url(#clip0_2_8238)">
<path d="M32.1205 9.65733C30.9936 7.80891 27.8915 8.5116 26.1176 8.8141C18.3803 -1.07927 2.54147 5.41976 4.37618 17.9414C2.79255 18.9603 -1.0294 21.6502 0.694763 23.6083C0.948504 23.8902 1.2683 24.1045 1.6254 24.2322C4.06596 25.138 6.83131 24.4893 9.31215 24.0505C15.6766 22.598 21.8106 19.9809 27.2085 16.3029C27.3867 25.4627 17.0478 30.8332 9.45955 25.9298C17.6973 32.3945 29.5342 25.5407 28.619 15.2557C30.0535 14.0243 32.9149 11.81 32.1205 9.65733ZM5.99579 23.3684C-0.922282 24.4507 0.274862 21.5628 4.3856 18.0014C4.70978 19.9177 5.51831 21.7195 6.73448 23.2355C6.48939 23.2818 6.24259 23.3255 5.99579 23.3649V23.3684ZM23.3531 17.0184C18.1258 19.7607 12.5625 22.0487 6.76875 23.2295C3.62635 18.5267 4.51672 11.6806 8.92567 8.08828C15.4119 2.49674 25.8074 6.31184 27.0774 14.7947C25.8811 15.5976 24.6274 16.3295 23.3531 17.0184ZM31.3852 10.5203C30.9113 11.9539 29.5762 12.9103 28.4151 13.8461C28.0565 12.0786 27.3115 10.4123 26.2333 8.96664C27.4553 8.92379 31.6714 8.58016 31.3852 10.5203Z" fill="#FDAC44"/>
</g>
<defs>
<clipPath id="clip0_2_8238">
<rect width="32" height="32" fill="white" transform="translate(0.257324)"/>
</clipPath>
</defs>
</svg>
