<svg width="33" height="32" viewBox="0 0 33 32" fill="none" xmlns="http://www.w3.org/2000/svg">
<g clip-path="url(#clip0_2_8227)">
<path d="M21.2573 21.0003C21.2573 20.4699 21.0466 19.9612 20.6715 19.5861C20.2965 19.2111 19.7878 19.0003 19.2573 19.0003H12.8223L13.2573 15.5603C13.2598 15.5404 13.2598 15.5203 13.2573 15.5003C13.2573 12.7303 11.2973 12.0003 10.2573 12.0003C10.1451 11.9962 10.0347 12.0299 9.94404 12.0962C9.85334 12.1624 9.78757 12.2572 9.75732 12.3653L7.75732 19.3103C7.42137 19.9728 6.90027 20.5234 6.25732 20.8953V20.5003C6.25732 20.3677 6.20465 20.2406 6.11088 20.1468C6.01711 20.053 5.88993 20.0003 5.75732 20.0003H0.757324C0.624716 20.0003 0.497539 20.053 0.403771 20.1468C0.310003 20.2406 0.257324 20.3677 0.257324 20.5003L0.257324 31.5003C0.257324 31.6329 0.310003 31.7601 0.403771 31.8539C0.497539 31.9477 0.624716 32.0003 0.757324 32.0003H5.75732C5.88993 32.0003 6.01711 31.9477 6.11088 31.8539C6.20465 31.7601 6.25732 31.6329 6.25732 31.5003V31.1653L9.12232 32.0003C9.167 32.008 9.21265 32.008 9.25732 32.0003H17.7573C18.1361 31.995 18.5056 31.8822 18.8228 31.675C19.1399 31.4679 19.3918 31.1749 19.5489 30.8302C19.7061 30.4855 19.7621 30.1033 19.7105 29.728C19.6589 29.3527 19.5017 28.9998 19.2573 28.7103C19.505 28.5613 19.7174 28.3603 19.8799 28.1212C20.0425 27.8822 20.1512 27.6107 20.1987 27.3256C20.2463 27.0404 20.2314 26.7484 20.1552 26.4695C20.079 26.1907 19.9433 25.9317 19.7573 25.7103C20.005 25.5613 20.2174 25.3603 20.3799 25.1212C20.5425 24.8822 20.6512 24.6107 20.6987 24.3256C20.7463 24.0404 20.7314 23.7484 20.6552 23.4695C20.579 23.1907 20.4433 22.9317 20.2573 22.7103C20.5581 22.5367 20.8086 22.2877 20.9839 21.9878C21.1592 21.688 21.2535 21.3477 21.2573 21.0003ZM5.25732 31.0003H1.25732V21.0003H5.25732V31.0003ZM17.7573 31.0003H9.32732L6.25732 30.1253V21.9403C7.75732 21.5953 8.66232 19.8103 8.70232 19.7253C8.71614 19.6962 8.72784 19.6661 8.73732 19.6353L10.6223 13.0453C11.2073 13.1753 12.2473 13.6603 12.2573 15.4703L11.7573 19.4403C11.7488 19.5101 11.7551 19.5809 11.7757 19.6481C11.7964 19.7153 11.831 19.7774 11.8773 19.8303C11.9247 19.8843 11.9832 19.9274 12.0488 19.9568C12.1144 19.9861 12.1855 20.001 12.2573 20.0003H19.2573C19.5225 20.0003 19.7769 20.1057 19.9644 20.2932C20.152 20.4808 20.2573 20.7351 20.2573 21.0003C20.2573 21.2656 20.152 21.5199 19.9644 21.7074C19.7769 21.895 19.5225 22.0003 19.2573 22.0003H16.7573C16.6247 22.0003 16.4975 22.053 16.4038 22.1468C16.31 22.2406 16.2573 22.3677 16.2573 22.5003C16.2573 22.6329 16.31 22.7601 16.4038 22.8539C16.4975 22.9477 16.6247 23.0003 16.7573 23.0003H18.7573C19.0225 23.0003 19.2769 23.1057 19.4644 23.2932C19.652 23.4808 19.7573 23.7351 19.7573 24.0003C19.7573 24.2656 19.652 24.5199 19.4644 24.7074C19.2769 24.895 19.0225 25.0003 18.7573 25.0003H16.2573C16.1247 25.0003 15.9975 25.053 15.9038 25.1468C15.81 25.2406 15.7573 25.3677 15.7573 25.5003C15.7573 25.6329 15.81 25.7601 15.9038 25.8539C15.9975 25.9477 16.1247 26.0003 16.2573 26.0003H18.2573C18.5225 26.0003 18.7769 26.1057 18.9644 26.2932C19.152 26.4808 19.2573 26.7351 19.2573 27.0003C19.2573 27.2656 19.152 27.5199 18.9644 27.7074C18.7769 27.895 18.5225 28.0003 18.2573 28.0003H15.7573C15.6247 28.0003 15.4975 28.053 15.4038 28.1468C15.31 28.2406 15.2573 28.3677 15.2573 28.5003C15.2573 28.6329 15.31 28.7601 15.4038 28.8539C15.4975 28.9477 15.6247 29.0003 15.7573 29.0003H17.7573C18.0225 29.0003 18.2769 29.1057 18.4644 29.2932C18.652 29.4808 18.7573 29.7351 18.7573 30.0003C18.7573 30.2656 18.652 30.5199 18.4644 30.7074C18.2769 30.895 18.0225 31.0003 17.7573 31.0003Z" fill="#FDAC44"/>
<path d="M32.2575 6.84514C32.2289 6.75695 32.1763 6.67846 32.1057 6.61842C32.0351 6.55838 31.9491 6.51916 31.8575 6.50514L25.6025 5.54514L23.2125 0.295137C23.1727 0.207843 23.1087 0.133833 23.028 0.0819345C22.9473 0.0300364 22.8534 0.00244141 22.7575 0.00244141C22.6616 0.00244141 22.5677 0.0300364 22.487 0.0819345C22.4063 0.133833 22.3423 0.207843 22.3025 0.295137L19.9125 5.54514L13.6825 6.50014C13.5905 6.5135 13.5041 6.55225 13.4329 6.61202C13.3617 6.67179 13.3086 6.75022 13.2795 6.8385C13.2504 6.92679 13.2465 7.02143 13.2682 7.11181C13.29 7.20219 13.3365 7.28472 13.4025 7.35014L17.7225 11.6651L16.7575 17.4201C16.7464 17.5113 16.7605 17.6037 16.7985 17.6874C16.8364 17.771 16.8966 17.8426 16.9726 17.8942C17.0485 17.9459 17.1372 17.9756 17.2289 17.9802C17.3206 17.9847 17.4118 17.964 17.4925 17.9201L22.7575 15.0701L28.0175 17.9401C28.0912 17.9799 28.1737 18.0006 28.2575 18.0001C28.3617 17.9995 28.4631 17.9663 28.5475 17.9051C28.626 17.8502 28.687 17.7739 28.7234 17.6852C28.7597 17.5966 28.7698 17.4994 28.7525 17.4051L27.7925 11.6551L32.1125 7.34014C32.1794 7.2786 32.2282 7.19999 32.2537 7.11278C32.2793 7.02556 32.2806 6.93303 32.2575 6.84514ZM26.9275 11.1451C26.8713 11.2013 26.8292 11.2701 26.8049 11.3457C26.7805 11.4214 26.7746 11.5017 26.7875 11.5801L27.6225 16.5801L23.0225 14.0801C22.9434 14.0291 22.8516 14.0013 22.7575 14.0001C22.6737 13.9997 22.5912 14.0204 22.5175 14.0601L17.9175 16.5601L18.7525 11.5601C18.7654 11.4817 18.7594 11.4014 18.7351 11.3257C18.7107 11.2501 18.6687 11.1813 18.6125 11.1251L14.8075 7.32514L20.3075 6.47514C20.39 6.46237 20.468 6.42915 20.5344 6.37849C20.6008 6.32783 20.6534 6.26136 20.6875 6.18514L22.7325 1.68514L24.7775 6.18514C24.8116 6.26136 24.8642 6.32783 24.9306 6.37849C24.997 6.42915 25.075 6.46237 25.1575 6.47514L30.6575 7.32514L26.9275 11.1451Z" fill="#FDAC44"/>
<path d="M6.75732 7.5H7.25732V8C7.25732 8.13261 7.31 8.25979 7.40377 8.35355C7.49754 8.44732 7.62472 8.5 7.75732 8.5C7.88993 8.5 8.01711 8.44732 8.11088 8.35355C8.20465 8.25979 8.25732 8.13261 8.25732 8V7.5H8.75732C8.88993 7.5 9.01711 7.44732 9.11088 7.35355C9.20465 7.25979 9.25732 7.13261 9.25732 7C9.25732 6.86739 9.20465 6.74021 9.11088 6.64645C9.01711 6.55268 8.88993 6.5 8.75732 6.5H8.25732V6C8.25732 5.86739 8.20465 5.74021 8.11088 5.64645C8.01711 5.55268 7.88993 5.5 7.75732 5.5C7.62472 5.5 7.49754 5.55268 7.40377 5.64645C7.31 5.74021 7.25732 5.86739 7.25732 6V6.5H6.75732C6.62472 6.5 6.49754 6.55268 6.40377 6.64645C6.31 6.74021 6.25732 6.86739 6.25732 7C6.25732 7.13261 6.31 7.25979 6.40377 7.35355C6.49754 7.44732 6.62472 7.5 6.75732 7.5Z" fill="#FDAC44"/>
<path d="M27.2573 25H26.7573V24.5C26.7573 24.3674 26.7046 24.2402 26.6109 24.1464C26.5171 24.0527 26.3899 24 26.2573 24C26.1247 24 25.9975 24.0527 25.9038 24.1464C25.81 24.2402 25.7573 24.3674 25.7573 24.5V25H25.2573C25.1247 25 24.9975 25.0527 24.9038 25.1464C24.81 25.2402 24.7573 25.3674 24.7573 25.5C24.7573 25.6326 24.81 25.7598 24.9038 25.8536C24.9975 25.9473 25.1247 26 25.2573 26H25.7573V26.5C25.7573 26.6326 25.81 26.7598 25.9038 26.8536C25.9975 26.9473 26.1247 27 26.2573 27C26.3899 27 26.5171 26.9473 26.6109 26.8536C26.7046 26.7598 26.7573 26.6326 26.7573 26.5V26H27.2573C27.3899 26 27.5171 25.9473 27.6109 25.8536C27.7046 25.7598 27.7573 25.6326 27.7573 25.5C27.7573 25.3674 27.7046 25.2402 27.6109 25.1464C27.5171 25.0527 27.3899 25 27.2573 25Z" fill="#FDAC44"/>
</g>
<defs>
<clipPath id="clip0_2_8227">
<rect width="32" height="32" fill="white" transform="translate(0.257324)"/>
</clipPath>
</defs>
</svg>
