<svg width="19" height="18" viewBox="0 0 19 18" fill="none" xmlns="http://www.w3.org/2000/svg">
<path d="M18.2573 9C18.2573 4.02944 14.2279 0 9.25732 0C4.28676 0 0.257324 4.02944 0.257324 9C0.257324 13.9706 4.28676 18 9.25732 18C14.2279 18 18.2573 13.9706 18.2573 9Z" fill="url(#paint0_linear_2_8324)"/>
<path opacity="0.1" d="M16.0309 3.07913C14.7188 5.48781 12.8631 7.97229 10.5445 10.291C8.22578 12.6097 5.7413 14.4618 3.33617 15.7739C3.18538 15.6428 3.03893 15.5062 2.89683 15.3641C2.03787 14.5338 1.35281 13.5409 0.881582 12.4431C0.410359 11.3453 0.162407 10.1647 0.152185 8.97008C0.141963 7.77547 0.369674 6.59079 0.822042 5.4851C1.27441 4.37942 1.94238 3.37485 2.78701 2.52999C3.63163 1.68513 4.63601 1.01688 5.74157 0.564205C6.84713 0.111528 8.03175 -0.116514 9.22635 -0.106625C10.421 -0.0967364 11.6016 0.150886 12.6996 0.621802C13.7975 1.09272 14.7906 1.77751 15.6212 2.63623C15.7633 2.77834 15.8999 2.92597 16.0309 3.07913Z" fill="white"/>
<path d="M11.3889 4.26318H7.12577C6.43481 4.26318 5.77215 4.53767 5.28357 5.02625C4.79499 5.51483 4.52051 6.17749 4.52051 6.86845V11.1316C4.52051 11.8226 4.79499 12.4852 5.28357 12.9738C5.77215 13.4624 6.43481 13.7369 7.12577 13.7369H11.3889C12.0799 13.7369 12.7425 13.4624 13.2311 12.9738C13.7197 12.4852 13.9942 11.8226 13.9942 11.1316V6.86845C13.9942 6.17749 13.7197 5.51483 13.2311 5.02625C12.7425 4.53767 12.0799 4.26318 11.3889 4.26318ZM13.1652 10.7574C13.1652 11.3277 12.9387 11.8747 12.5354 12.278C12.1321 12.6813 11.5851 12.9079 11.0147 12.9079H7.49998C6.92963 12.9079 6.38263 12.6813 5.97933 12.278C5.57603 11.8747 5.34946 11.3277 5.34946 10.7574V7.24266C5.34946 6.6723 5.57603 6.12531 5.97933 5.72201C6.38263 5.3187 6.92963 5.09213 7.49998 5.09213H11.0147C11.5851 5.09213 12.1321 5.3187 12.5354 5.72201C12.9387 6.12531 13.1652 6.6723 13.1652 7.24266V10.7574Z" fill="white"/>
<path d="M10.985 7.29001L10.9625 7.26751L10.9436 7.24856C10.4958 6.80236 9.88936 6.55195 9.25724 6.55225C8.93802 6.55442 8.62236 6.61946 8.32829 6.74366C8.03422 6.86786 7.76751 7.04879 7.54339 7.2761C7.31926 7.50341 7.14212 7.77266 7.02209 8.06845C6.90205 8.36425 6.84147 8.6808 6.84382 9.00001C6.84333 9.64783 7.09869 10.2696 7.55434 10.7301C7.77753 10.956 8.04348 11.1352 8.33667 11.2572C8.62986 11.3792 8.94442 11.4416 9.26197 11.4407C9.73831 11.4307 10.2014 11.2823 10.5949 11.0136C10.9883 10.7449 11.2951 10.3676 11.4778 9.92753C11.6604 9.4875 11.7111 9.00382 11.6236 8.53549C11.5361 8.06716 11.3142 7.6344 10.985 7.29001ZM9.25724 10.6058C8.93872 10.6103 8.62607 10.5199 8.35906 10.3462C8.09205 10.1725 7.88273 9.92327 7.75774 9.63027C7.63274 9.33727 7.59771 9.01372 7.65711 8.70076C7.7165 8.3878 7.86764 8.09957 8.09129 7.87274C8.31494 7.64591 8.601 7.49073 8.91309 7.42692C9.22519 7.36311 9.5492 7.39357 9.84394 7.51442C10.1387 7.63527 10.3908 7.84105 10.5683 8.10559C10.7457 8.37012 10.8405 8.68146 10.8405 9.00001C10.8421 9.20943 10.8024 9.41711 10.7236 9.61117C10.6449 9.80523 10.5287 9.98187 10.3816 10.131C10.2346 10.2801 10.0596 10.3988 9.86668 10.4803C9.67375 10.5618 9.46666 10.6044 9.25724 10.6058Z" fill="white"/>
<path d="M12.3871 6.43964C12.3877 6.51563 12.3734 6.59099 12.3448 6.66142C12.3163 6.73185 12.2741 6.79596 12.2208 6.85008C12.1674 6.9042 12.1039 6.94726 12.0339 6.97681C11.9639 7.00636 11.8888 7.0218 11.8128 7.02227C11.7374 7.02223 11.6628 7.00725 11.5933 6.97818C11.5238 6.94911 11.4607 6.90654 11.4078 6.85293C11.3275 6.77153 11.273 6.66837 11.2508 6.55625C11.2287 6.44413 11.2399 6.32797 11.2832 6.22219C11.3264 6.1164 11.3998 6.02563 11.4941 5.96113C11.5885 5.89664 11.6997 5.86126 11.8139 5.85938C11.9477 5.85935 12.0772 5.90629 12.1799 5.99201L12.1917 6.00385C12.2108 6.0194 12.2283 6.03685 12.2438 6.05595L12.2568 6.07016C12.3416 6.17459 12.3876 6.30514 12.3871 6.43964Z" fill="white"/>
<defs>
<linearGradient id="paint0_linear_2_8324" x1="2.89338" y1="2.63605" x2="15.6213" y2="15.3639" gradientUnits="userSpaceOnUse">
<stop stop-color="#FAE100"/>
<stop offset="0.15" stop-color="#FCB720"/>
<stop offset="0.3" stop-color="#FF7950"/>
<stop offset="0.5" stop-color="#FF1C74"/>
<stop offset="1" stop-color="#6C1CD1"/>
</linearGradient>
</defs>
</svg>
