<svg width="33" height="32" viewBox="0 0 33 32" fill="none" xmlns="http://www.w3.org/2000/svg">
<g clip-path="url(#clip0_2_8245)">
<path d="M23.9311 13.0852C23.8633 12.945 23.8342 12.7889 23.8471 12.6337L24.2978 7.18714C24.3484 6.57415 24.1215 5.97994 23.675 5.55686C23.2286 5.13379 22.6225 4.93913 22.0137 5.02251C21.545 5.08679 21.0914 5.23976 20.6803 5.4703C20.6478 5.4258 20.6144 5.38187 20.5787 5.33924C19.7305 4.32726 18.2173 4.19389 17.2054 5.04173L13.54 8.10938V7.42312C13.54 7.37194 13.5552 7.32264 13.5841 7.28038L14.3443 6.16792C14.4902 5.95448 14.4354 5.66321 14.222 5.51736C14.0084 5.37138 13.7172 5.4263 13.5714 5.63975L12.8112 6.75221C12.6756 6.95067 12.6038 7.18265 12.6038 7.42312V8.89288L9.68679 11.3342V6.92552C9.68679 6.42093 9.83727 5.93401 10.122 5.51742L12.7993 1.59931C13.0191 1.27765 13.351 1.06084 13.7338 0.988815C14.1167 0.916794 14.5047 0.998114 14.8264 1.21799C15.1481 1.43773 15.3649 1.76969 15.4369 2.15258C15.5089 2.5354 15.4276 2.92347 15.2078 3.24507L14.7166 3.96403C14.5707 4.17754 14.6256 4.46874 14.8389 4.6146C15.0523 4.76045 15.3437 4.70559 15.4894 4.49221L15.9807 3.77324C16.3415 3.24513 16.4751 2.60811 16.3569 1.97951C16.2386 1.35092 15.8826 0.805891 15.3545 0.445036C14.8265 0.08418 14.1894 -0.0494402 13.5607 0.0688271C12.9321 0.187094 12.3872 0.543082 12.0263 1.0712L9.34903 4.98931C8.95759 5.56223 8.75064 6.23177 8.75064 6.92558V12.1178L7.34679 13.2927C6.3378 14.1371 5.79702 15.4244 5.90018 16.7361L6.19819 20.5248C6.21748 20.77 6.42243 20.9562 6.66433 20.9561C6.67663 20.9561 6.68905 20.9556 6.70153 20.9547C6.95922 20.9345 7.15176 20.7091 7.13147 20.4514L6.83346 16.6628C6.75402 15.6525 7.17054 14.661 7.94767 14.0106L17.8065 5.75951C18.4228 5.24294 19.3446 5.3242 19.8612 5.94056C20.3777 6.55699 20.2965 7.47872 19.6801 7.99529L14.5482 12.296C14.2294 12.3731 13.9242 12.5265 13.6597 12.7566L11.1513 14.9399C10.9563 15.1097 10.9359 15.4053 11.1056 15.6003C11.2753 15.7953 11.5709 15.8157 11.766 15.646L14.2744 13.4627C14.7106 13.0828 15.3471 13.0792 15.7878 13.454L19.5816 16.6809C19.8784 16.9334 20.0591 17.2862 20.0904 17.6745C20.1218 18.0629 20 18.4402 19.7476 18.7369C19.563 18.9538 19.3191 19.1099 19.0487 19.1896L16.3944 16.9319C15.5983 16.2547 14.4482 16.2613 13.6598 16.9475L11.1514 19.1309C10.9564 19.3006 10.9359 19.5963 11.1056 19.7913C11.2754 19.9863 11.571 20.0067 11.7661 19.837L14.2744 17.6536C14.7107 17.2738 15.3472 17.2701 15.7879 17.645L19.5817 20.8719C19.8784 21.1243 20.0591 21.4772 20.0904 21.8655C20.1218 22.2539 20.0001 22.6312 19.7476 22.9279C19.4952 23.2246 19.1424 23.4053 18.7541 23.4366C18.3652 23.4679 17.9883 23.3462 17.6917 23.0938L15.3433 21.0963C15.1575 20.9382 14.8816 20.9494 14.7091 21.1218L14.0121 21.8188C13.8293 22.0016 13.8293 22.298 14.0121 22.4808C14.1949 22.6635 14.4913 22.6635 14.6741 22.4808L15.0657 22.0891L17.0851 23.8068C17.522 24.1786 18.0653 24.3776 18.6327 24.3776C18.6979 24.3776 18.7636 24.375 18.8293 24.3697C19.4668 24.3182 20.0462 24.0215 20.4607 23.5343C20.8751 23.0471 21.075 22.4276 21.0235 21.7901C20.9721 21.1525 20.6754 20.5731 20.1882 20.1587L19.8392 19.8619C20.0725 19.7264 20.2833 19.5518 20.4607 19.3433C21.3162 18.3375 21.194 16.8232 20.1882 15.9676L18.5062 14.5369L19.5228 9.34835L20.2815 8.71251C20.7717 8.30173 21.0727 7.72456 21.1288 7.08735C21.1517 6.82797 21.1321 6.57153 21.0741 6.32526C21.4 6.13085 21.7635 6.00147 22.1409 5.9498C22.4673 5.90486 22.7919 6.0094 23.0312 6.23614C23.2704 6.46287 23.3921 6.78123 23.3649 7.10975L22.9143 12.5564C22.8876 12.878 22.9479 13.2018 23.0884 13.4925L23.9219 15.2163C24.9721 17.3884 25.0076 19.8964 24.0194 22.0974L23.4834 23.2909C23.3775 23.5267 23.4829 23.8038 23.7187 23.9096C23.781 23.9376 23.8461 23.9508 23.9102 23.9508C24.0888 23.9508 24.2595 23.848 24.3375 23.6743L24.8734 22.4808C25.9753 20.0269 25.9357 17.2306 24.7648 14.8088L23.9311 13.0852ZM17.6883 13.8417L16.3943 12.741C16.2314 12.6025 16.0537 12.4931 15.8674 12.4117L18.3812 10.3052L17.6883 13.8417Z" fill="#FDAC44"/>
<path d="M23.2804 24.8849C23.0446 24.7791 22.7676 24.8843 22.6617 25.1202L21.4629 27.7898C21.4359 27.8501 21.4219 27.9155 21.4219 27.9815V31.5318C21.4219 31.7904 21.6314 31.9999 21.89 31.9999C22.1485 31.9999 22.358 31.7904 22.358 31.5318V28.0818L23.5157 25.5037C23.6216 25.2679 23.5162 24.9908 23.2804 24.8849Z" fill="#FDAC44"/>
<path d="M20.5633 2.91293C20.8219 2.91293 21.0314 2.70342 21.0314 2.44486V0.468076C21.0314 0.209511 20.8219 0 20.5633 0C20.3047 0 20.0952 0.209511 20.0952 0.468076V2.44486C20.0952 2.70336 20.3048 2.91293 20.5633 2.91293Z" fill="#FDAC44"/>
<path d="M22.5612 3.37858C22.6333 3.41878 22.7114 3.43775 22.7885 3.43775C22.9529 3.43775 23.1123 3.35106 23.1979 3.19735L24.1597 1.47033C24.2855 1.24447 24.2044 0.959379 23.9786 0.833623C23.7527 0.707867 23.4676 0.789 23.3419 1.0148L22.3801 2.74181C22.2542 2.96774 22.3354 3.25277 22.5612 3.37858Z" fill="#FDAC44"/>
<path d="M26.5569 3.2236C26.4208 3.00385 26.1324 2.93607 25.9125 3.07213L24.2319 4.11294C24.0122 4.24906 23.9443 4.53758 24.0805 4.75732C24.169 4.90031 24.3221 4.97901 24.4788 4.97901C24.5629 4.97901 24.6481 4.95635 24.7248 4.90879L26.4054 3.86798C26.6252 3.73193 26.6931 3.4434 26.5569 3.2236Z" fill="#FDAC44"/>
<path d="M8.65221 25.6253C7.91808 24.7027 7.44931 23.5958 7.29653 22.4241C7.26308 22.1679 7.02848 21.9876 6.77185 22.0205C6.51553 22.0539 6.33479 22.2888 6.36824 22.5451C6.54299 23.8857 7.07947 25.1523 7.91964 26.2081L9.85086 28.6352V31.5016C9.85086 31.7602 10.0604 31.9697 10.3189 31.9697C10.5774 31.9697 10.787 31.7602 10.787 31.5016V28.4717C10.787 28.3658 10.7511 28.263 10.6852 28.1802L8.65221 25.6253Z" fill="#FDAC44"/>
</g>
<defs>
<clipPath id="clip0_2_8245">
<rect width="32" height="32" fill="white" transform="translate(0.257324)"/>
</clipPath>
</defs>
</svg>
