<svg width="50" height="50" viewBox="0 0 50 50" fill="none" xmlns="http://www.w3.org/2000/svg">
<rect width="50" height="50" rx="25" fill="#FDAC44"/>
<path d="M17.97 28.4657C17.9654 28.6735 18.0256 28.8776 18.1424 29.0495C18.2592 29.2215 18.4267 29.3528 18.6215 29.4252C18.8164 29.4976 19.0289 29.5075 19.2296 29.4535C19.4303 29.3995 19.6092 29.2843 19.7414 29.1239L24.9836 23.0048L30.2239 29.1239C30.3054 29.2349 30.409 29.3278 30.5281 29.3968C30.6472 29.4659 30.7793 29.5096 30.9161 29.5253C31.0529 29.5409 31.1914 29.5281 31.323 29.4878C31.4546 29.4474 31.5765 29.3803 31.681 29.2906C31.7855 29.201 31.8703 29.0907 31.9302 28.9667C31.9901 28.8428 32.0237 28.7078 32.029 28.5702C32.0343 28.4326 32.0112 28.2954 31.9611 28.1672C31.9109 28.039 31.8348 27.9225 31.7375 27.8251L25.7433 20.8192C25.6494 20.7092 25.5329 20.6209 25.4016 20.5603C25.2702 20.4997 25.1273 20.4683 24.9826 20.4683C24.838 20.4683 24.6951 20.4997 24.5637 20.5603C24.4324 20.6209 24.3157 20.7092 24.2219 20.8192L18.2219 27.8251C18.0647 28.0021 17.9753 28.2291 17.9697 28.4657L17.97 28.4657Z" fill="#323232"/>
</svg>
